<mxfile host="app.diagrams.net" modified="2022-09-10T13:17:46.554Z" agent="5.0 (Windows)" etag="tTcKS8p1I0yAfnZcI8HW" version="20.0.4" type="github">
  <diagram id="C5RBs43oDa-KdzZeNtuy" name="Page-1">
    <mxGraphModel dx="769" dy="412" grid="1" gridSize="10" guides="1" tooltips="1" connect="1" arrows="1" fold="1" page="1" pageScale="1" pageWidth="827" pageHeight="1169" math="0" shadow="0">
      <root>
        <mxCell id="WIyWlLk6GJQsqaUBKTNV-0" />
        <mxCell id="WIyWlLk6GJQsqaUBKTNV-1" parent="WIyWlLk6GJQsqaUBKTNV-0" />
        <mxCell id="9cDGBhPt0k6lU2hgR4Xh-2" value="Star" style="ellipse;whiteSpace=wrap;html=1;" vertex="1" parent="WIyWlLk6GJQsqaUBKTNV-1">
          <mxGeometry x="320" y="10" width="120" height="50" as="geometry" />
        </mxCell>
        <mxCell id="9cDGBhPt0k6lU2hgR4Xh-6" value="" style="endArrow=classic;html=1;rounded=0;" edge="1" parent="WIyWlLk6GJQsqaUBKTNV-1">
          <mxGeometry width="50" height="50" relative="1" as="geometry">
            <mxPoint x="379.5" y="70" as="sourcePoint" />
            <mxPoint x="379.5" y="130" as="targetPoint" />
            <Array as="points">
              <mxPoint x="380" y="70" />
              <mxPoint x="380" y="60" />
            </Array>
          </mxGeometry>
        </mxCell>
        <mxCell id="9cDGBhPt0k6lU2hgR4Xh-7" value="&lt;div&gt;Baca&lt;/div&gt;&lt;div&gt;Sisi A = 4&lt;/div&gt;&lt;div&gt;Sisi B = 9&lt;/div&gt;&lt;div&gt;Sisi C = 0&lt;br&gt;&lt;/div&gt;" style="shape=parallelogram;perimeter=parallelogramPerimeter;whiteSpace=wrap;html=1;fixedSize=1;" vertex="1" parent="WIyWlLk6GJQsqaUBKTNV-1">
          <mxGeometry x="320" y="130" width="120" height="60" as="geometry" />
        </mxCell>
        <mxCell id="9cDGBhPt0k6lU2hgR4Xh-9" value="" style="endArrow=classic;html=1;rounded=0;" edge="1" parent="WIyWlLk6GJQsqaUBKTNV-1">
          <mxGeometry width="50" height="50" relative="1" as="geometry">
            <mxPoint x="379.5" y="190" as="sourcePoint" />
            <mxPoint x="379.5" y="260" as="targetPoint" />
            <Array as="points">
              <mxPoint x="379.5" y="230" />
            </Array>
          </mxGeometry>
        </mxCell>
        <mxCell id="9cDGBhPt0k6lU2hgR4Xh-10" value="&lt;div&gt;Keliling = Sisi A +&lt;/div&gt;&lt;div&gt;Sisi B + Sisi C&lt;br&gt;&lt;/div&gt;" style="rounded=1;whiteSpace=wrap;html=1;" vertex="1" parent="WIyWlLk6GJQsqaUBKTNV-1">
          <mxGeometry x="320" y="260" width="120" height="60" as="geometry" />
        </mxCell>
        <mxCell id="9cDGBhPt0k6lU2hgR4Xh-13" value="" style="endArrow=classic;html=1;rounded=0;" edge="1" parent="WIyWlLk6GJQsqaUBKTNV-1" target="9cDGBhPt0k6lU2hgR4Xh-14">
          <mxGeometry width="50" height="50" relative="1" as="geometry">
            <mxPoint x="379.5" y="320" as="sourcePoint" />
            <mxPoint x="380" y="390" as="targetPoint" />
          </mxGeometry>
        </mxCell>
        <mxCell id="9cDGBhPt0k6lU2hgR4Xh-14" value="Cetak Keliling = 13" style="shape=hexagon;perimeter=hexagonPerimeter2;whiteSpace=wrap;html=1;fixedSize=1;" vertex="1" parent="WIyWlLk6GJQsqaUBKTNV-1">
          <mxGeometry x="320" y="350" width="120" height="80" as="geometry" />
        </mxCell>
        <mxCell id="9cDGBhPt0k6lU2hgR4Xh-15" value="" style="endArrow=classic;html=1;rounded=0;" edge="1" parent="WIyWlLk6GJQsqaUBKTNV-1" target="9cDGBhPt0k6lU2hgR4Xh-16">
          <mxGeometry width="50" height="50" relative="1" as="geometry">
            <mxPoint x="379.5" y="430" as="sourcePoint" />
            <mxPoint x="380" y="500" as="targetPoint" />
          </mxGeometry>
        </mxCell>
        <mxCell id="9cDGBhPt0k6lU2hgR4Xh-16" value="END" style="ellipse;whiteSpace=wrap;html=1;aspect=fixed;" vertex="1" parent="WIyWlLk6GJQsqaUBKTNV-1">
          <mxGeometry x="340" y="460" width="80" height="80" as="geometry" />
        </mxCell>
        <mxCell id="9cDGBhPt0k6lU2hgR4Xh-19" value="Start" style="ellipse;whiteSpace=wrap;html=1;" vertex="1" parent="WIyWlLk6GJQsqaUBKTNV-1">
          <mxGeometry x="320" y="640" width="120" height="60" as="geometry" />
        </mxCell>
        <mxCell id="9cDGBhPt0k6lU2hgR4Xh-20" value="" style="endArrow=classic;html=1;rounded=0;" edge="1" parent="WIyWlLk6GJQsqaUBKTNV-1">
          <mxGeometry width="50" height="50" relative="1" as="geometry">
            <mxPoint x="379.5" y="700" as="sourcePoint" />
            <mxPoint x="379.5" y="750" as="targetPoint" />
          </mxGeometry>
        </mxCell>
        <mxCell id="9cDGBhPt0k6lU2hgR4Xh-22" value="&lt;div&gt;Baca&lt;/div&gt;&lt;div&gt;Panjang = 9&lt;/div&gt;&lt;div&gt;Lebar = 0&lt;br&gt;&lt;/div&gt;" style="shape=parallelogram;perimeter=parallelogramPerimeter;whiteSpace=wrap;html=1;fixedSize=1;" vertex="1" parent="WIyWlLk6GJQsqaUBKTNV-1">
          <mxGeometry x="315" y="750" width="130" height="60" as="geometry" />
        </mxCell>
        <mxCell id="9cDGBhPt0k6lU2hgR4Xh-23" value="" style="endArrow=classic;html=1;rounded=0;" edge="1" parent="WIyWlLk6GJQsqaUBKTNV-1" target="9cDGBhPt0k6lU2hgR4Xh-24">
          <mxGeometry width="50" height="50" relative="1" as="geometry">
            <mxPoint x="379.5" y="810" as="sourcePoint" />
            <mxPoint x="379.5" y="880" as="targetPoint" />
          </mxGeometry>
        </mxCell>
        <mxCell id="9cDGBhPt0k6lU2hgR4Xh-24" value="Luas = 9*0" style="rounded=1;whiteSpace=wrap;html=1;" vertex="1" parent="WIyWlLk6GJQsqaUBKTNV-1">
          <mxGeometry x="319.5" y="850" width="120" height="60" as="geometry" />
        </mxCell>
        <mxCell id="9cDGBhPt0k6lU2hgR4Xh-25" value="" style="endArrow=classic;html=1;rounded=0;" edge="1" parent="WIyWlLk6GJQsqaUBKTNV-1" target="9cDGBhPt0k6lU2hgR4Xh-26">
          <mxGeometry width="50" height="50" relative="1" as="geometry">
            <mxPoint x="379" y="910" as="sourcePoint" />
            <mxPoint x="379" y="990" as="targetPoint" />
          </mxGeometry>
        </mxCell>
        <mxCell id="9cDGBhPt0k6lU2hgR4Xh-26" value="Cetak Luas = 9" style="shape=hexagon;perimeter=hexagonPerimeter2;whiteSpace=wrap;html=1;fixedSize=1;" vertex="1" parent="WIyWlLk6GJQsqaUBKTNV-1">
          <mxGeometry x="319" y="950" width="120" height="80" as="geometry" />
        </mxCell>
        <mxCell id="9cDGBhPt0k6lU2hgR4Xh-27" value="" style="endArrow=classic;html=1;rounded=0;" edge="1" parent="WIyWlLk6GJQsqaUBKTNV-1">
          <mxGeometry width="50" height="50" relative="1" as="geometry">
            <mxPoint x="379.5" y="1030" as="sourcePoint" />
            <mxPoint x="380" y="1070" as="targetPoint" />
          </mxGeometry>
        </mxCell>
        <mxCell id="9cDGBhPt0k6lU2hgR4Xh-28" value="ENd" style="ellipse;whiteSpace=wrap;html=1;aspect=fixed;" vertex="1" parent="WIyWlLk6GJQsqaUBKTNV-1">
          <mxGeometry x="340" y="1070" width="80" height="80" as="geometry" />
        </mxCell>
        <mxCell id="9cDGBhPt0k6lU2hgR4Xh-29" value="&lt;div&gt;Nama : Muhamad Wahyuniarto Aziz&lt;/div&gt;&lt;div&gt;Kelas: 02TPLE004&lt;/div&gt;&lt;div&gt;Nim : 211011450490&lt;br&gt;&lt;/div&gt;" style="text;html=1;align=center;verticalAlign=middle;resizable=0;points=[];autosize=1;strokeColor=none;fillColor=none;" vertex="1" parent="WIyWlLk6GJQsqaUBKTNV-1">
          <mxGeometry x="445" width="210" height="60" as="geometry" />
        </mxCell>
      </root>
    </mxGraphModel>
  </diagram>
</mxfile>
